<?xml version="1.0" encoding="UTF-8" standalone="no"?>
<svg width="40px" height="40px" viewBox="0 0 40 40" version="1.1" xmlns="http://www.w3.org/2000/svg" xmlns:xlink="http://www.w3.org/1999/xlink" xmlns:sketch="http://www.bohemiancoding.com/sketch/ns">
    <!-- Generator: Sketch 3.1.1 (8761) - http://www.bohemiancoding.com/sketch -->
    <title>logo</title>
    <desc>Created with Sketch.</desc>
    <defs></defs>
    <g id="Page-1" stroke="none" stroke-width="1" fill="none" fill-rule="evenodd" sketch:type="MSPage">
        <g id="logo" sketch:type="MSLayerGroup">
            <g id="Page-1" sketch:type="MSShapeGroup">
                <g id="logo">
                    <g id="Page-1">
                        <g id="logo">
                            <g id="Group">
                                <path d="M38.2905983,0 L1.70940171,0 C0.769230769,0 0,0.769230769 0,1.70940171 L0,38.2905983 C0,39.2307692 0.769230769,40 1.70940171,40 L38.2905983,40 C39.2307692,40 40,39.2307692 40,38.2905983 L40,1.70940171 C40,0.769230769 39.2307692,0 38.2905983,0 L38.2905983,0 L38.2905983,0 Z" id="Shape" fill="#3B3C3B"></path>
                                <ellipse id="Oval-1" stroke="#979797" cx="20" cy="20.5" rx="16" ry="16.5"></ellipse>
                                <polygon id="Triangle-1" stroke="#979797" fill="#D8D8D8" points="20 4.5 33.8564065 28.5 6.14359354 28.5 "></polygon>
                                <path d="M19.9684985,6 L20.0209985,21" id="Line" stroke="#979797" stroke-linecap="square"></path>
                                <path d="M32.7432221,27.4133933 L20,20.5" id="Line-2" stroke="#979797" stroke-linecap="square"></path>
                                <path d="M7.26148435,27.4220615 L20,20.5" id="Line-3" stroke="#979797" stroke-linecap="square"></path>
                            </g>
                        </g>
                    </g>
                </g>
            </g>
        </g>
    </g>
</svg>